<?xml version="1.0" encoding="UTF-8"?>
<svg xmlns="http://www.w3.org/2000/svg" viewBox="150 1310 1100 880">
  <g transform="translate(0,3536) scale(0.1,-0.1)" fill="#821346" stroke="none">
  <path d="M8100 21869 c-122 -26 -315 -87 -354 -113 -30 -19 -32 -38 -10 -109
41 -134 42 -137 77 -131 68 12 308 75 369 97 60 21 63 24 62 54 -2 38 -76 198
-95 205 -8 2 -30 1 -49 -3z"/>
  <path d="M7220 21608 c-97 -42 -171 -72 -275 -113 -158 -62 -586 -269 -767
-371 -43 -24 -80 -44 -83 -44 -7 0 -263 -155 -350 -212 -129 -85 -428 -297
-525 -373 -21 -16 -56 -43 -77 -60 -21 -16 -72 -59 -114 -95 -42 -36 -103 -87
-135 -113 -32 -27 -71 -67 -86 -89 -25 -37 -26 -42 -13 -68 8 -15 38 -53 67
-84 62 -65 89 -71 134 -28 70 67 232 200 261 216 53 27 67 21 125 -51 67 -83
78 -103 78 -142 0 -23 -9 -37 -42 -63 -24 -18 -52 -41 -63 -51 -11 -10 -52
-42 -90 -72 -39 -29 -135 -116 -215 -194 -80 -77 -152 -141 -160 -141 -8 0
-44 30 -81 66 l-66 65 -35 -20 c-43 -26 -306 -304 -319 -338 -5 -13 -9 -34 -9
-45 0 -26 123 -148 150 -148 20 0 158 132 290 278 88 97 105 98 196 5 71 -73
88 -103 78 -137 -7 -22 -48 -76 -104 -136 -78 -85 -130 -141 -200 -219 -41
-46 -88 -98 -103 -115 -34 -37 -81 -104 -90 -128 -4 -12 12 -34 56 -76 102
-98 144 -132 159 -132 9 0 43 35 76 78 66 86 460 487 645 656 64 60 117 115
117 123 0 8 -33 56 -73 106 -40 51 -84 110 -97 131 l-24 39 45 40 c86 77 720
547 737 547 31 0 80 -52 132 -138 83 -138 81 -145 -55 -236 -48 -33 -113 -80
-144 -106 -31 -25 -119 -93 -196 -151 -174 -129 -255 -206 -255 -240 0 -18 23
-48 85 -109 47 -46 88 -94 91 -107 9 -33 -10 -57 -133 -169 -294 -267 -663
-674 -663 -729 0 -21 46 -69 162 -169 66 -56 68 -57 95 -42 15 8 84 74 152
148 160 171 502 505 631 614 30 26 57 50 60 54 23 33 396 326 527 415 56 38
107 79 113 91 14 26 11 34 -72 158 -87 128 -89 124 95 238 240 149 527 323
587 355 601 327 1086 525 1715 699 88 25 175 66 175 84 0 5 -6 29 -14 52 -8
24 -19 68 -26 98 -21 96 -26 103 -63 96 -31 -6 -264 -68 -322 -87 -18 -5 -33
-5 -39 1 -5 5 -18 61 -28 125 -20 127 -17 145 29 163 37 15 252 53 548 98 132
20 251 41 264 48 32 14 42 52 40 149 -2 98 -10 107 -94 107 -269 0 -1160 -161
-1414 -256 -35 -14 -94 -31 -130 -40 -86 -19 -443 -139 -621 -208 -117 -46
-130 -51 -311 -137 -168 -80 -182 -81 -216 -7 -31 66 -57 154 -50 172 9 22 59
51 142 82 304 113 372 142 380 162 2 7 -6 39 -18 70 -13 31 -29 77 -37 102 -7
25 -18 51 -23 58 -11 15 -82 15 -117 0z"/>
  <path d="M10076 21523 c-5 -68 -3 -90 8 -101 10 -11 47 -14 162 -13 82 1 163
4 181 7 33 6 33 7 33 65 0 32 -4 61 -10 64 -5 3 -10 17 -10 29 0 32 -18 36
-201 36 l-156 0 -7 -87z"/>
  <path d="M10250 21134 c-185 -10 -535 -49 -577 -65 -20 -7 -23 -16 -22 -56 0
-27 8 -84 18 -128 l16 -80 60 1 c33 0 98 5 145 12 47 6 123 16 170 22 47 6
119 15 160 20 103 13 470 40 556 40 59 0 75 4 96 23 22 19 26 32 27 85 2 61 1
65 -34 98 l-36 34 -262 -2 c-144 -1 -287 -3 -317 -4z"/>
  <path d="M11755 20954 c-6 -76 -5 -98 6 -108 8 -7 57 -21 109 -30 52 -10 141
-26 198 -37 56 -11 117 -19 135 -17 l32 3 3 80 c3 71 1 82 -18 97 -27 22 -158
63 -250 78 -41 7 -91 16 -110 21 -19 5 -49 9 -67 9 l-31 0 -7 -96z"/>
  <path d="M11211 20873 c-3 -100 1 -189 7 -195 17 -17 404 -50 438 -38 22 9 24
15 23 72 0 35 -5 79 -12 98 -12 34 -15 35 -82 46 -107 18 -264 34 -322 34 -42
0 -52 -3 -52 -17z"/>
  <path d="M12265 20440 c-10 -11 -20 -41 -22 -67 -4 -44 -2 -49 22 -60 48 -22
243 -66 260 -59 25 9 16 113 -11 133 -17 13 -200 73 -221 73 -5 0 -18 -9 -28
-20z"/>
  <path d="M10492 19525 c-26 -56 -92 -412 -92 -492 0 -38 3 -43 28 -50 15 -4
61 -8 102 -8 l74 0 12 65 c56 294 68 373 69 425 l0 59 -60 13 c-94 19 -120 17
-133 -12z"/>
  <path d="M11157 19174 c-9 -3 -24 -21 -32 -41 -18 -43 -51 -273 -42 -295 3
-10 27 -21 60 -28 68 -14 102 -2 111 37 26 109 36 178 36 246 0 73 -1 77 -22
77 -13 0 -39 2 -58 4 -19 3 -43 2 -53 0z"/>
  <path d="M10488 18648 c-29 -40 -52 -94 -71 -168 -40 -151 -36 -161 79 -190
51 -13 52 -13 77 13 13 15 32 48 41 74 10 27 28 73 41 103 54 126 49 151 -40
179 -85 28 -98 27 -127 -11z"/>
  <path d="M4238 18660 c-9 -6 -40 -45 -69 -88 -29 -42 -79 -111 -112 -152 -86
-111 -137 -190 -137 -216 0 -37 124 -134 172 -134 19 0 61 46 147 160 39 52
93 124 120 159 75 98 78 104 55 146 -25 48 -103 122 -134 129 -14 3 -32 1 -42
-4z"/>
  <path d="M3621 18411 c-7 -5 -20 -19 -29 -33 -86 -128 -117 -178 -158 -257
-55 -105 -54 -120 18 -169 59 -40 105 -50 124 -25 24 31 198 295 219 331 12
21 -13 67 -48 87 -18 10 -43 28 -57 40 -31 27 -53 35 -69 26z"/>
  <path d="M9657 18218 c-50 -105 -78 -166 -100 -220 -14 -34 -14 -37 6 -57 40
-37 135 -74 175 -68 19 4 39 10 43 14 4 4 41 74 82 154 l74 145 -24 22 c-37
33 -175 102 -204 102 -4 0 -28 -42 -52 -92z"/>
  <path d="M4586 18133 c-52 -55 -164 -220 -171 -255 -8 -34 1 -46 74 -102 108
-83 113 -84 159 -42 21 19 98 121 159 211 34 50 34 91 0 104 -12 5 -45 26 -72
48 -51 39 -101 73 -108 73 -3 0 -21 -17 -41 -37z"/>
  <path d="M10746 18105 c-22 -17 -36 -47 -118 -250 -33 -82 -67 -163 -75 -180
-14 -29 -14 -31 27 -67 42 -38 130 -74 155 -64 12 4 55 83 55 101 0 3 11 30
24 58 114 243 141 314 126 332 -11 13 -153 85 -167 85 -4 0 -17 -7 -27 -15z"/>
  <path d="M10207 18042 c-48 -50 -137 -262 -124 -296 8 -21 111 -86 136 -86 23
0 72 58 122 143 83 142 85 157 24 199 -34 23 -118 68 -128 68 -2 0 -15 -12
-30 -28z"/>
  <path d="M3741 17725 c-37 -32 -210 -376 -218 -435 -7 -47 -1 -54 87 -99 81
-42 99 -46 107 -24 4 10 23 47 44 83 87 155 179 341 179 363 0 13 -10 32 -22
43 -28 24 -132 94 -140 94 -4 0 -20 -11 -37 -25z"/>
  <path d="M4183 17548 c-24 -25 -59 -81 -83 -130 -67 -140 -67 -194 0 -228 22
-11 59 -23 82 -26 41 -4 44 -3 67 33 109 171 151 243 151 260 0 33 -48 69
-170 131 -3 1 -24 -17 -47 -40z"/>
  <path d="M9826 17518 c-61 -64 -133 -187 -142 -245 -6 -38 -4 -45 24 -70 17
-15 65 -46 106 -68 l75 -40 32 30 c29 28 119 157 119 172 0 3 7 14 16 24 9 10
22 34 29 55 11 32 10 40 -4 55 -23 25 -133 104 -171 124 l-32 17 -52 -54z"/>
  <path d="M10919 17379 c-33 -36 -179 -309 -179 -336 0 -30 29 -63 93 -104 l61
-39 33 32 c18 17 33 35 33 39 0 4 16 36 36 71 20 34 48 83 62 108 13 25 30 52
36 60 16 19 36 67 36 84 0 20 -138 115 -168 116 -8 0 -27 -14 -43 -31z"/>
  <path d="M9135 17342 c-16 -10 -48 -41 -70 -68 -126 -157 -378 -420 -570 -594
-243 -221 -301 -272 -380 -330 -33 -24 -67 -50 -75 -57 -8 -7 -55 -43 -105
-79 -176 -131 -189 -154 -131 -237 20 -29 50 -69 67 -89 46 -54 44 -89 -10
-134 -48 -42 -159 -124 -166 -124 -3 0 -65 -39 -138 -87 -199 -130 -332 -213
-342 -213 -3 0 -73 -39 -157 -86 -214 -120 -557 -289 -723 -358 -215 -88 -667
-235 -1007 -326 -179 -48 -633 -122 -863 -140 -77 -6 -173 -15 -213 -20 -40
-6 -88 -10 -107 -10 -33 0 -34 -1 -40 -54 -7 -56 0 -142 14 -165 10 -16 381
-17 536 -1 343 35 299 29 620 86 110 19 266 53 346 75 151 40 229 49 246 27
26 -35 42 -183 23 -218 -13 -25 -102 -52 -256 -79 -65 -12 -182 -34 -259 -50
l-140 -27 1 -71 c1 -39 9 -94 19 -123 l17 -52 52 5 c73 7 336 46 345 52 4 2
50 9 102 15 88 11 146 22 364 72 229 52 309 73 430 113 72 24 194 64 273 89
200 64 466 171 677 271 209 99 207 98 249 81 28 -12 38 -26 66 -95 l33 -82
-29 -30 c-39 -41 -90 -70 -204 -113 -135 -52 -192 -78 -212 -95 -24 -19 -23
-82 2 -123 14 -24 18 -42 13 -74 -3 -23 -1 -44 5 -47 21 -14 140 28 372 130
30 13 64 27 74 30 35 11 578 288 681 347 55 32 154 92 220 133 66 41 129 80
139 86 40 24 254 172 335 231 201 147 542 435 568 480 21 37 15 52 -60 131
-66 70 -76 77 -100 71 -15 -3 -95 -65 -178 -136 -83 -72 -158 -130 -167 -130
-25 0 -128 112 -152 165 l-22 47 30 37 c16 20 78 78 138 129 194 165 334 296
340 320 6 23 1 31 -116 177 -58 74 -66 98 -44 134 11 16 73 85 139 153 66 68
136 143 155 167 19 25 63 78 98 120 34 42 62 85 62 97 0 40 -228 231 -249 208
-4 -5 -66 -79 -137 -164 -71 -85 -237 -264 -369 -398 -132 -133 -240 -249
-240 -256 0 -14 22 -43 109 -145 36 -42 66 -97 66 -120 0 -21 -631 -540 -700
-576 -40 -21 -63 -12 -98 33 -15 20 -35 46 -45 57 -33 36 -77 119 -77 147 0
31 -9 23 227 198 89 66 195 150 235 187 40 38 104 94 141 127 37 32 67 66 67
75 0 20 -25 58 -70 108 -70 77 -102 132 -95 160 4 16 78 98 181 201 97 96 217
222 267 281 50 58 105 122 123 141 18 19 51 60 74 90 24 30 48 60 55 65 7 6
15 20 19 32 8 24 -13 49 -77 90 -21 13 -66 46 -99 73 -34 28 -69 50 -77 50 -9
0 -29 -8 -46 -18z"/>
  <path d="M10408 17232 c-40 -26 -307 -426 -308 -460 0 -19 55 -67 124 -109
l59 -37 27 33 c64 76 287 412 295 443 4 17 0 29 -17 44 -29 26 -139 104 -147
104 -3 0 -18 -8 -33 -18z"/>
  <path d="M4601 17214 c-38 -31 -217 -382 -227 -443 -6 -36 -3 -44 23 -68 29
-27 93 -54 159 -68 31 -6 33 -4 72 64 22 38 44 80 48 93 8 25 95 183 131 237
35 52 31 91 -15 120 -67 44 -146 91 -153 91 -4 0 -21 -12 -38 -26z"/>
  <path d="M3243 16742 c-31 -20 -74 -162 -88 -289 l-7 -62 33 -20 c101 -61 133
-32 185 164 27 102 30 157 10 174 -11 9 -101 41 -116 41 -3 0 -10 -4 -17 -8z"/>
  <path d="M9964 16242 c-22 -21 -53 -56 -69 -78 -16 -21 -34 -43 -40 -49 -27
-25 -117 -139 -141 -180 l-26 -45 34 -35 c18 -20 49 -46 68 -58 19 -11 40 -28
46 -36 18 -24 55 1 137 94 39 44 108 116 154 161 l82 81 -16 34 c-18 40 -151
149 -181 149 -4 0 -25 -17 -48 -38z"/>
  <path d="M3731 16244 c-12 -15 -25 -43 -30 -63 -5 -20 -26 -101 -46 -181 -49
-192 -74 -315 -75 -368 0 -37 4 -44 26 -52 14 -6 61 -10 104 -10 l79 0 10 38
c6 20 11 47 11 59 0 19 17 94 50 223 5 19 15 60 21 90 7 30 18 78 26 105 30
102 29 107 -29 142 -29 17 -69 34 -90 37 -31 6 -39 3 -57 -20z"/>
  <path d="M1921 15156 c-16 -19 -17 -92 -2 -110 14 -17 238 -72 250 -60 2 1 5
22 8 46 6 57 -17 78 -121 112 -90 30 -119 32 -135 12z"/>
  <path d="M2063 14622 c-37 -24 -31 -100 10 -120 60 -29 213 -64 244 -56 26 7
36 48 21 91 -10 28 -18 33 -92 53 -45 12 -94 26 -110 31 -35 11 -57 11 -73 1z"/>
  <path d="M3315 14601 c-2 -5 -8 -47 -11 -94 -6 -77 -5 -86 12 -95 31 -16 170
-32 327 -37 134 -4 148 -3 155 13 8 20 8 179 0 187 -11 11 -55 15 -198 20 -80
3 -175 7 -212 10 -37 2 -70 0 -73 -4z"/>
  <path d="M2825 14401 c-8 -59 1 -125 19 -140 19 -16 258 -54 401 -63 l40 -3 3
94 c1 52 -1 98 -7 104 -5 5 -42 13 -82 18 -41 4 -108 13 -149 20 -41 6 -107
13 -146 16 l-72 5 -7 -51z"/>
  <path d="M3630 14051 c-12 -8 -12 -22 -3 -86 6 -42 15 -81 21 -87 22 -22 328
-38 412 -21 l33 6 -6 84 c-3 47 -10 90 -16 96 -15 15 -419 22 -441 8z"/>
  <path d="M4655 13925 c-5 -2 -40 -6 -77 -10 l-68 -7 0 -61 c0 -45 6 -71 21
-96 l20 -34 180 5 c111 3 185 10 191 16 8 8 8 31 -2 84 -21 114 -13 108 -143
107 -62 0 -116 -2 -122 -4z"/>
  <path d="M6934 13840 c-33 -16 -105 -43 -160 -61 -128 -41 -192 -74 -206 -104
-8 -19 -8 -39 1 -81 15 -65 42 -99 69 -86 9 5 46 14 82 20 269 46 321 61 368
104 31 30 28 76 -10 164 -39 86 -47 89 -144 44z"/>
  <path d="M6000 13570 c-179 -24 -497 -77 -510 -85 -13 -8 -13 -81 1 -145 l11
-52 87 7 c227 17 404 36 481 50 47 8 102 18 123 21 20 4 40 11 43 16 4 5 3 48
-1 94 -6 80 -8 85 -35 99 -34 18 -27 18 -200 -5z"/>
  </g>
</svg>