<?xml version="1.0" encoding="UTF-8"?>
<svg xmlns="http://www.w3.org/2000/svg" viewBox="150 1310 4200 920">
  <g transform="translate(0,3536) scale(0.1,-0.1)" fill="#821346" stroke="none">
  <path d="M43180 35350 c0 -5 5 -10 10 -10 6 0 10 5 10 10 0 6 -4 10 -10 10 -5
0 -10 -4 -10 -10z"/>
  <path d="M8100 21869 c-122 -26 -315 -87 -354 -113 -30 -19 -32 -38 -10 -109
41 -134 42 -137 77 -131 68 12 308 75 369 97 60 21 63 24 62 54 -2 38 -76 198
-95 205 -8 2 -30 1 -49 -3z"/>
  <path d="M7220 21608 c-97 -42 -171 -72 -275 -113 -158 -62 -586 -269 -767
-371 -43 -24 -80 -44 -83 -44 -7 0 -263 -155 -350 -212 -129 -85 -428 -297
-525 -373 -21 -16 -56 -43 -77 -60 -21 -16 -72 -59 -114 -95 -42 -36 -103 -87
-135 -113 -32 -27 -71 -67 -86 -89 -25 -37 -26 -42 -13 -68 8 -15 38 -53 67
-84 62 -65 89 -71 134 -28 70 67 232 200 261 216 53 27 67 21 125 -51 67 -83
78 -103 78 -142 0 -23 -9 -37 -42 -63 -24 -18 -52 -41 -63 -51 -11 -10 -52
-42 -90 -72 -39 -29 -135 -116 -215 -194 -80 -77 -152 -141 -160 -141 -8 0
-44 30 -81 66 l-66 65 -35 -20 c-43 -26 -306 -304 -319 -338 -5 -13 -9 -34 -9
-45 0 -26 123 -148 150 -148 20 0 158 132 290 278 88 97 105 98 196 5 71 -73
88 -103 78 -137 -7 -22 -48 -76 -104 -136 -78 -85 -130 -141 -200 -219 -41
-46 -88 -98 -103 -115 -34 -37 -81 -104 -90 -128 -4 -12 12 -34 56 -76 102
-98 144 -132 159 -132 9 0 43 35 76 78 66 86 460 487 645 656 64 60 117 115
117 123 0 8 -33 56 -73 106 -40 51 -84 110 -97 131 l-24 39 45 40 c86 77 720
547 737 547 31 0 80 -52 132 -138 83 -138 81 -145 -55 -236 -48 -33 -113 -80
-144 -106 -31 -25 -119 -93 -196 -151 -174 -129 -255 -206 -255 -240 0 -18 23
-48 85 -109 47 -46 88 -94 91 -107 9 -33 -10 -57 -133 -169 -294 -267 -663
-674 -663 -729 0 -21 46 -69 162 -169 66 -56 68 -57 95 -42 15 8 84 74 152
148 160 171 502 505 631 614 30 26 57 50 60 54 23 33 396 326 527 415 56 38
107 79 113 91 14 26 11 34 -72 158 -87 128 -89 124 95 238 240 149 527 323
587 355 601 327 1086 525 1715 699 88 25 175 66 175 84 0 5 -6 29 -14 52 -8
24 -19 68 -26 98 -21 96 -26 103 -63 96 -31 -6 -264 -68 -322 -87 -18 -5 -33
-5 -39 1 -5 5 -18 61 -28 125 -20 127 -17 145 29 163 37 15 252 53 548 98 132
20 251 41 264 48 32 14 42 52 40 149 -2 98 -10 107 -94 107 -269 0 -1160 -161
-1414 -256 -35 -14 -94 -31 -130 -40 -86 -19 -443 -139 -621 -208 -117 -46
-130 -51 -311 -137 -168 -80 -182 -81 -216 -7 -31 66 -57 154 -50 172 9 22 59
51 142 82 304 113 372 142 380 162 2 7 -6 39 -18 70 -13 31 -29 77 -37 102 -7
25 -18 51 -23 58 -11 15 -82 15 -117 0z"/>
  <path d="M10076 21523 c-5 -68 -3 -90 8 -101 10 -11 47 -14 162 -13 82 1 163
4 181 7 33 6 33 7 33 65 0 32 -4 61 -10 64 -5 3 -10 17 -10 29 0 32 -18 36
-201 36 l-156 0 -7 -87z"/>
  <path d="M10250 21134 c-185 -10 -535 -49 -577 -65 -20 -7 -23 -16 -22 -56 0
-27 8 -84 18 -128 l16 -80 60 1 c33 0 98 5 145 12 47 6 123 16 170 22 47 6
119 15 160 20 103 13 470 40 556 40 59 0 75 4 96 23 22 19 26 32 27 85 2 61 1
65 -34 98 l-36 34 -262 -2 c-144 -1 -287 -3 -317 -4z"/>
  <path d="M11755 20954 c-6 -76 -5 -98 6 -108 8 -7 57 -21 109 -30 52 -10 141
-26 198 -37 56 -11 117 -19 135 -17 l32 3 3 80 c3 71 1 82 -18 97 -27 22 -158
63 -250 78 -41 7 -91 16 -110 21 -19 5 -49 9 -67 9 l-31 0 -7 -96z"/>
  <path d="M11211 20873 c-3 -100 1 -189 7 -195 17 -17 404 -50 438 -38 22 9 24
15 23 72 0 35 -5 79 -12 98 -12 34 -15 35 -82 46 -107 18 -264 34 -322 34 -42
0 -52 -3 -52 -17z"/>
  <path d="M12265 20440 c-10 -11 -20 -41 -22 -67 -4 -44 -2 -49 22 -60 48 -22
243 -66 260 -59 25 9 16 113 -11 133 -17 13 -200 73 -221 73 -5 0 -18 -9 -28
-20z"/>
  <path d="M14854 19892 c-28 -3 -32 -8 -38 -40 -3 -20 -6 -657 -6 -1414 0
-1091 3 -1379 13 -1385 21 -14 1665 -16 1792 -3 252 27 388 133 452 355 16 55
18 143 21 1010 3 1042 1 1079 -54 1194 -37 77 -66 112 -129 161 -72 56 -177
97 -278 110 -73 9 -1689 20 -1773 12z m1655 -571 l36 -7 0 -846 c0 -681 -3
-850 -13 -860 -10 -10 -128 -13 -580 -13 l-567 0 -7 40 c-4 22 -7 410 -7 862
-1 702 1 823 13 830 18 10 1076 5 1125 -6z"/>
  <path d="M18104 19892 c-31 -3 -31 -4 -37 -70 -8 -80 1 -2194 9 -2301 11 -149
71 -264 194 -374 8 -7 37 -26 64 -42 102 -60 83 -58 1004 -62 l842 -4 0 263
c0 145 -4 269 -9 277 -8 12 -123 14 -770 12 -727 -2 -761 -2 -769 16 -4 10 -7
140 -7 289 0 221 3 274 14 288 14 16 53 17 530 16 284 -1 526 -1 538 -1 51 2
53 14 53 276 0 184 -3 246 -12 252 -7 4 -260 8 -563 8 l-550 0 -7 40 c-4 22
-7 151 -7 286 -1 198 2 249 13 258 10 8 216 11 775 9 626 -3 762 -1 766 10 3
8 5 133 5 278 0 203 -3 266 -12 269 -14 5 -2014 12 -2064 7z"/>
  <path d="M21170 19885 c-7 -8 -9 -410 -8 -1136 l3 -1124 275 0 275 0 3 1095
c2 602 0 1110 -3 1127 -4 23 -12 34 -28 37 -12 3 -131 7 -265 9 -179 3 -245 0
-252 -8z"/>
  <path d="M24424 19891 c-10 -10 -3 -2379 7 -2440 20 -125 76 -220 175 -297 77
-60 146 -91 231 -102 95 -13 109 -9 116 36 6 38 12 494 12 869 0 212 0 212 23
223 15 6 211 10 572 10 l550 0 3 183 c3 278 2 345 -6 353 -4 5 -249 7 -545 5
-358 -1 -546 1 -565 8 l-27 11 2 287 3 288 762 5 c606 4 765 8 775 18 10 10
14 69 16 228 4 236 -5 301 -43 309 -26 6 -2055 11 -2061 6z"/>
  <path d="M30815 19892 c-22 -2 -44 -7 -49 -12 -12 -12 -8 -2351 4 -2426 21
-131 67 -213 162 -290 88 -72 201 -117 302 -118 l61 -1 5 562 c3 360 9 566 15
572 6 6 116 11 289 11 223 1 280 -1 287 -12 5 -7 9 -112 9 -233 0 -238 6 -322
24 -328 21 -7 518 11 526 19 5 5 11 126 14 269 5 212 8 262 20 271 8 6 61 19
117 29 195 36 296 107 370 260 46 97 54 180 54 590 0 485 -12 543 -141 673
-76 76 -152 114 -284 141 -89 19 -143 20 -920 23 -454 2 -843 2 -865 0z m1654
-575 c7 -9 11 -102 12 -282 1 -234 -1 -270 -15 -284 -15 -14 -74 -16 -582 -16
-491 0 -566 2 -574 15 -13 21 -13 536 0 561 10 18 27 19 579 19 461 0 571 -3
580 -13z"/>
  <path d="M22879 19828 c-5 -461 -5 -2179 1 -2188 5 -8 90 -13 278 -17 l271 -6
6 34 c3 19 4 529 3 1134 l-3 1100 -277 3 -278 2 -1 -62z"/>
  <path d="M27980 19883 c-254 -41 -364 -123 -443 -330 l-22 -58 -3 -985 c-2
-651 1 -1009 8 -1055 23 -154 124 -294 259 -359 113 -54 176 -58 911 -54 629
4 647 4 724 26 149 41 236 111 296 236 66 141 65 116 65 1181 l0 960 -27 85
c-15 47 -43 109 -63 137 -57 84 -170 165 -260 185 -160 37 -172 37 -800 36
-341 0 -631 -3 -645 -5z m1240 -573 c17 -32 9 -1685 -8 -1702 -10 -10 -130
-14 -575 -16 -525 -3 -562 -2 -574 14 -18 25 -19 1694 -1 1712 9 9 151 12 580
12 558 0 567 0 578 -20z"/>
  <path d="M34445 19875 c-188 -35 -297 -106 -364 -238 -69 -138 -66 -85 -66
-1172 0 -926 1 -984 19 -1050 10 -38 26 -83 35 -100 32 -59 91 -133 123 -156
18 -13 35 -26 38 -31 10 -13 116 -58 166 -70 58 -13 1862 -24 1875 -11 11 11
14 1662 2 1674 -5 5 -244 10 -561 12 l-552 2 2 -270 3 -270 265 3 c223 3 268
1 285 -11 19 -14 20 -29 23 -219 4 -235 -3 -342 -25 -363 -12 -13 -92 -15
-573 -15 -543 0 -560 1 -570 19 -7 13 -10 301 -10 864 0 761 2 845 16 851 9 3
390 6 847 6 458 0 838 4 845 9 11 6 13 61 10 267 -2 142 -7 265 -11 272 -12
18 -1721 15 -1822 -3z"/>
  <path d="M37262 18673 c3 -1156 4 -1221 21 -1268 72 -194 187 -307 354 -347
33 -8 305 -12 891 -15 l842 -4 0 276 0 275 -32 0 c-18 1 -365 1 -770 0 -725
-1 -737 -1 -747 19 -7 12 -11 117 -11 283 0 212 3 268 14 284 14 18 31 19 565
19 438 0 553 3 563 13 10 10 13 71 13 265 l0 252 -110 7 c-60 3 -314 4 -564 1
-434 -6 -455 -5 -467 12 -11 15 -14 77 -14 289 0 149 4 277 8 283 6 10 177 13
778 15 l769 3 0 275 0 275 -1053 3 -1052 2 2 -1217z"/>
  <path d="M10492 19525 c-26 -56 -92 -412 -92 -492 0 -38 3 -43 28 -50 15 -4
61 -8 102 -8 l74 0 12 65 c56 294 68 373 69 425 l0 59 -60 13 c-94 19 -120 17
-133 -12z"/>
  <path d="M11157 19174 c-9 -3 -24 -21 -32 -41 -18 -43 -51 -273 -42 -295 3
-10 27 -21 60 -28 68 -14 102 -2 111 37 26 109 36 178 36 246 0 73 -1 77 -22
77 -13 0 -39 2 -58 4 -19 3 -43 2 -53 0z"/>
  <path d="M10488 18648 c-29 -40 -52 -94 -71 -168 -40 -151 -36 -161 79 -190
51 -13 52 -13 77 13 13 15 32 48 41 74 10 27 28 73 41 103 54 126 49 151 -40
179 -85 28 -98 27 -127 -11z"/>
  <path d="M4238 18660 c-9 -6 -40 -45 -69 -88 -29 -42 -79 -111 -112 -152 -86
-111 -137 -190 -137 -216 0 -37 124 -134 172 -134 19 0 61 46 147 160 39 52
93 124 120 159 75 98 78 104 55 146 -25 48 -103 122 -134 129 -14 3 -32 1 -42
-4z"/>
  <path d="M3621 18411 c-7 -5 -20 -19 -29 -33 -86 -128 -117 -178 -158 -257
-55 -105 -54 -120 18 -169 59 -40 105 -50 124 -25 24 31 198 295 219 331 12
21 -13 67 -48 87 -18 10 -43 28 -57 40 -31 27 -53 35 -69 26z"/>
  <path d="M9657 18218 c-50 -105 -78 -166 -100 -220 -14 -34 -14 -37 6 -57 40
-37 135 -74 175 -68 19 4 39 10 43 14 4 4 41 74 82 154 l74 145 -24 22 c-37
33 -175 102 -204 102 -4 0 -28 -42 -52 -92z"/>
  <path d="M4586 18133 c-52 -55 -164 -220 -171 -255 -8 -34 1 -46 74 -102 108
-83 113 -84 159 -42 21 19 98 121 159 211 34 50 34 91 0 104 -12 5 -45 26 -72
48 -51 39 -101 73 -108 73 -3 0 -21 -17 -41 -37z"/>
  <path d="M10746 18105 c-22 -17 -36 -47 -118 -250 -33 -82 -67 -163 -75 -180
-14 -29 -14 -31 27 -67 42 -38 130 -74 155 -64 12 4 55 83 55 101 0 3 11 30
24 58 114 243 141 314 126 332 -11 13 -153 85 -167 85 -4 0 -17 -7 -27 -15z"/>
  <path d="M10207 18042 c-48 -50 -137 -262 -124 -296 8 -21 111 -86 136 -86 23
0 72 58 122 143 83 142 85 157 24 199 -34 23 -118 68 -128 68 -2 0 -15 -12
-30 -28z"/>
  <path d="M3741 17725 c-37 -32 -210 -376 -218 -435 -7 -47 -1 -54 87 -99 81
-42 99 -46 107 -24 4 10 23 47 44 83 87 155 179 341 179 363 0 13 -10 32 -22
43 -28 24 -132 94 -140 94 -4 0 -20 -11 -37 -25z"/>
  <path d="M4183 17548 c-24 -25 -59 -81 -83 -130 -67 -140 -67 -194 0 -228 22
-11 59 -23 82 -26 41 -4 44 -3 67 33 109 171 151 243 151 260 0 33 -48 69
-170 131 -3 1 -24 -17 -47 -40z"/>
  <path d="M21738 17568 c-3 -49 4 -513 9 -520 2 -5 251 -8 553 -8 l548 0 4 213
c1 116 1 240 0 275 l-4 62 -554 0 -554 0 -2 -22z"/>
  <path d="M32487 17583 c-4 -3 -7 -125 -7 -269 l0 -264 23 -5 c12 -3 135 -4
272 -3 l250 3 3 237 c2 191 -1 245 -12 273 l-15 35 -254 0 c-139 0 -257 -3
-260 -7z"/>
  <path d="M9826 17518 c-61 -64 -133 -187 -142 -245 -6 -38 -4 -45 24 -70 17
-15 65 -46 106 -68 l75 -40 32 30 c29 28 119 157 119 172 0 3 7 14 16 24 9 10
22 34 29 55 11 32 10 40 -4 55 -23 25 -133 104 -171 124 l-32 17 -52 -54z"/>
  <path d="M10919 17379 c-33 -36 -179 -309 -179 -336 0 -30 29 -63 93 -104 l61
-39 33 32 c18 17 33 35 33 39 0 4 16 36 36 71 20 34 48 83 62 108 13 25 30 52
36 60 16 19 36 67 36 84 0 20 -138 115 -168 116 -8 0 -27 -14 -43 -31z"/>
  <path d="M9135 17342 c-16 -10 -48 -41 -70 -68 -126 -157 -378 -420 -570 -594
-243 -221 -301 -272 -380 -330 -33 -24 -67 -50 -75 -57 -8 -7 -55 -43 -105
-79 -176 -131 -189 -154 -131 -237 20 -29 50 -69 67 -89 46 -54 44 -89 -10
-134 -48 -42 -159 -124 -166 -124 -3 0 -65 -39 -138 -87 -199 -130 -332 -213
-342 -213 -3 0 -73 -39 -157 -86 -214 -120 -557 -289 -723 -358 -215 -88 -667
-235 -1007 -326 -179 -48 -633 -122 -863 -140 -77 -6 -173 -15 -213 -20 -40
-6 -88 -10 -107 -10 -33 0 -34 -1 -40 -54 -7 -56 0 -142 14 -165 10 -16 381
-17 536 -1 343 35 299 29 620 86 110 19 266 53 346 75 151 40 229 49 246 27
26 -35 42 -183 23 -218 -13 -25 -102 -52 -256 -79 -65 -12 -182 -34 -259 -50
l-140 -27 1 -71 c1 -39 9 -94 19 -123 l17 -52 52 5 c73 7 336 46 345 52 4 2
50 9 102 15 88 11 146 22 364 72 229 52 309 73 430 113 72 24 194 64 273 89
200 64 466 171 677 271 209 99 207 98 249 81 28 -12 38 -26 66 -95 l33 -82
-29 -30 c-39 -41 -90 -70 -204 -113 -135 -52 -192 -78 -212 -95 -24 -19 -23
-82 2 -123 14 -24 18 -42 13 -74 -3 -23 -1 -44 5 -47 21 -14 140 28 372 130
30 13 64 27 74 30 35 11 578 288 681 347 55 32 154 92 220 133 66 41 129 80
139 86 40 24 254 172 335 231 201 147 542 435 568 480 21 37 15 52 -60 131
-66 70 -76 77 -100 71 -15 -3 -95 -65 -178 -136 -83 -72 -158 -130 -167 -130
-25 0 -128 112 -152 165 l-22 47 30 37 c16 20 78 78 138 129 194 165 334 296
340 320 6 23 1 31 -116 177 -58 74 -66 98 -44 134 11 16 73 85 139 153 66 68
136 143 155 167 19 25 63 78 98 120 34 42 62 85 62 97 0 40 -228 231 -249 208
-4 -5 -66 -79 -137 -164 -71 -85 -237 -264 -369 -398 -132 -133 -240 -249
-240 -256 0 -14 22 -43 109 -145 36 -42 66 -97 66 -120 0 -21 -631 -540 -700
-576 -40 -21 -63 -12 -98 33 -15 20 -35 46 -45 57 -33 36 -77 119 -77 147 0
31 -9 23 227 198 89 66 195 150 235 187 40 38 104 94 141 127 37 32 67 66 67
75 0 20 -25 58 -70 108 -70 77 -102 132 -95 160 4 16 78 98 181 201 97 96 217
222 267 281 50 58 105 122 123 141 18 19 51 60 74 90 24 30 48 60 55 65 7 6
15 20 19 32 8 24 -13 49 -77 90 -21 13 -66 46 -99 73 -34 28 -69 50 -77 50 -9
0 -29 -8 -46 -18z"/>
  <path d="M10408 17232 c-40 -26 -307 -426 -308 -460 0 -19 55 -67 124 -109
l59 -37 27 33 c64 76 287 412 295 443 4 17 0 29 -17 44 -29 26 -139 104 -147
104 -3 0 -18 -8 -33 -18z"/>
  <path d="M4601 17214 c-38 -31 -217 -382 -227 -443 -6 -36 -3 -44 23 -68 29
-27 93 -54 159 -68 31 -6 33 -4 72 64 22 38 44 80 48 93 8 25 95 183 131 237
35 52 31 91 -15 120 -67 44 -146 91 -153 91 -4 0 -21 -12 -38 -26z"/>
  <path d="M3243 16742 c-31 -20 -74 -162 -88 -289 l-7 -62 33 -20 c101 -61 133
-32 185 164 27 102 30 157 10 174 -11 9 -101 41 -116 41 -3 0 -10 -4 -17 -8z"/>
  <path d="M9964 16242 c-22 -21 -53 -56 -69 -78 -16 -21 -34 -43 -40 -49 -27
-25 -117 -139 -141 -180 l-26 -45 34 -35 c18 -20 49 -46 68 -58 19 -11 40 -28
46 -36 18 -24 55 1 137 94 39 44 108 116 154 161 l82 81 -16 34 c-18 40 -151
149 -181 149 -4 0 -25 -17 -48 -38z"/>
  <path d="M3731 16244 c-12 -15 -25 -43 -30 -63 -5 -20 -26 -101 -46 -181 -49
-192 -74 -315 -75 -368 0 -37 4 -44 26 -52 14 -6 61 -10 104 -10 l79 0 10 38
c6 20 11 47 11 59 0 19 17 94 50 223 5 19 15 60 21 90 7 30 18 78 26 105 30
102 29 107 -29 142 -29 17 -69 34 -90 37 -31 6 -39 3 -57 -20z"/>
  <path d="M18730 16061 l-35 -6 -6 -160 c-3 -88 -9 -168 -13 -178 -10 -21 -26
-25 -146 -35 l-95 -7 1 -73 c1 -41 7 -79 14 -87 10 -12 38 -15 127 -15 63 0
123 -5 133 -10 27 -14 38 -65 46 -218 8 -154 8 -155 107 -150 l62 3 3 110 c4
152 -12 256 -51 324 -35 63 -36 74 -23 316 7 132 6 162 -5 171 -18 15 -75 22
-119 15z"/>
  <path d="M19680 16055 c-5 -6 -6 -130 -3 -277 l6 -267 26 -5 c39 -8 615 9 630
18 17 11 10 131 -8 149 -9 8 -79 12 -234 12 -122 0 -228 4 -234 8 -9 6 -13 38
-13 102 0 79 3 94 17 99 10 4 138 6 286 5 185 -1 271 1 279 9 6 6 12 33 13 60
1 27 5 54 9 60 4 7 -7 15 -31 21 -53 14 -732 19 -743 6z"/>
  <path d="M22120 16061 l-35 -6 -2 -462 -1 -461 21 -6 c12 -3 50 -6 85 -6 l62
0 2 403 c4 536 4 527 -13 538 -15 10 -65 10 -119 0z"/>
  <path d="M25464 16062 c-19 -3 -22 -11 -26 -85 -9 -127 6 -457 21 -466 12 -8
614 -3 639 4 16 6 17 146 0 163 -9 9 -78 12 -250 12 l-238 0 -5 23 c-3 12 -5
58 -3 102 l3 80 291 3 291 2 10 35 c16 52 5 114 -21 120 -24 5 -680 12 -712 7z"/>
  <path d="M29997 16058 c-16 -8 -18 -24 -17 -121 4 -288 57 -376 247 -412 206
-38 360 -14 445 69 71 71 97 166 98 363 0 93 0 93 -27 100 -34 9 -122 9 -146
0 -16 -6 -18 -20 -15 -159 2 -168 -4 -193 -50 -205 -15 -4 -95 -8 -179 -8
-127 0 -155 3 -168 16 -14 13 -16 39 -16 140 1 177 -4 206 -39 214 -54 12
-115 13 -133 3z"/>
  <path d="M14943 16030 c-95 -48 -139 -122 -154 -261 -12 -103 1 -256 22 -270
8 -5 41 -8 74 -7 l60 3 2 40 c9 137 26 271 39 304 8 22 26 43 40 50 57 26 191
2 211 -37 4 -9 10 -177 13 -372 l5 -355 85 0 85 0 5 355 c4 261 9 361 18 377
16 29 45 36 136 31 85 -4 110 -19 126 -77 6 -21 10 -174 10 -358 l0 -323 23
-5 c13 -4 50 -5 82 -3 l60 3 0 375 c0 418 3 401 -72 472 -71 68 -114 83 -238
83 -112 0 -152 -11 -193 -51 -22 -22 -54 -16 -88 17 -32 31 -33 31 -161 36
l-128 5 -62 -32z"/>
  <path d="M16822 16042 c-72 -23 -115 -61 -149 -129 l-28 -58 -3 -367 -3 -368
68 0 c37 0 73 4 79 8 8 5 11 104 11 327 0 278 2 324 16 350 10 17 17 38 17 47
0 39 27 48 138 48 133 0 220 -14 245 -38 15 -15 19 -34 18 -87 0 -38 -5 -73
-11 -79 -7 -7 -73 -12 -167 -14 l-155 -4 6 -36 c3 -21 6 -54 6 -75 0 -50 17
-55 170 -58 111 -3 123 -5 135 -23 10 -15 14 -66 16 -182 1 -89 5 -167 9 -173
4 -8 31 -11 76 -9 l69 3 12 38 c16 48 23 333 13 540 -7 132 -12 164 -30 200
-24 48 -65 87 -130 126 -43 25 -52 26 -210 28 -134 2 -175 -1 -218 -15z"/>
  <path d="M18167 16049 c-17 -10 -17 -35 -11 -462 4 -325 9 -454 17 -460 7 -4
44 -6 82 -5 l70 3 0 465 0 465 -70 2 c-38 2 -78 -2 -88 -8z"/>
  <path d="M23007 16053 c-20 -19 2 -157 26 -166 6 -2 39 0 72 5 33 4 202 7 375
6 l315 -3 7 50 c11 74 3 102 -34 109 -41 8 -753 8 -761 -1z"/>
  <path d="M27150 16046 c-111 -30 -181 -115 -199 -241 -12 -78 -13 -564 -3
-635 l7 -45 70 -3 c39 -1 76 2 83 7 11 7 14 79 16 359 3 398 3 395 76 407 23
4 102 4 176 0 121 -7 136 -10 149 -28 20 -28 21 -150 1 -166 -7 -6 -78 -16
-157 -22 -79 -6 -145 -12 -146 -13 -7 -6 -6 -134 1 -144 5 -8 50 -12 146 -12
157 0 169 -5 171 -68 3 -179 11 -308 18 -315 4 -4 41 -7 82 -5 73 3 74 3 80
33 10 46 10 466 0 596 -7 83 -15 128 -29 155 -35 68 -118 130 -193 144 -72 14
-295 11 -349 -4z"/>
  <path d="M28675 16051 c-131 -32 -216 -160 -201 -303 10 -103 51 -159 146
-202 45 -20 82 -27 205 -35 83 -7 162 -14 177 -17 57 -11 85 -85 55 -144 -22
-44 -62 -50 -312 -47 l-230 2 -3 -87 c-3 -87 -3 -87 23 -94 14 -3 130 -4 258
-2 212 4 236 6 279 26 56 26 122 101 143 161 44 130 -9 284 -112 327 -17 8
-34 18 -37 23 -8 12 -71 19 -254 30 -170 10 -177 13 -174 93 3 75 18 105 55
115 18 4 125 6 238 5 l207 -2 6 22 c10 39 7 113 -6 126 -13 13 -410 16 -463 3z"/>
  <path d="M23313 15788 c-10 -16 -4 -650 6 -661 4 -4 39 -7 77 -5 l68 3 9 40
c4 22 7 162 5 312 l-3 271 -24 26 c-20 22 -33 26 -77 26 -31 0 -56 -5 -61 -12z"/>
  <path d="M14796 15394 c-3 -9 -6 -71 -6 -139 0 -147 3 -151 88 -141 83 10 86
15 86 154 0 64 -3 123 -8 130 -4 8 -33 12 -81 12 -57 0 -74 -3 -79 -16z"/>
  <path d="M19687 15403 c-13 -12 -7 -74 10 -106 60 -117 111 -152 242 -167 102
-12 471 -13 488 -2 18 11 19 102 2 137 l-14 30 -258 5 -258 5 -37 40 c-20 23
-50 46 -65 53 -30 13 -99 16 -110 5z"/>
  <path d="M25452 15398 c-42 -42 42 -198 130 -244 44 -23 202 -35 413 -32 l200
3 0 77 c-1 43 -6 83 -12 89 -7 7 -93 12 -246 14 -139 2 -249 7 -269 14 -19 6
-51 29 -72 51 -34 36 -43 40 -85 40 -26 0 -52 -5 -59 -12z"/>
  <path d="M30297 15403 c-16 -4 -17 -17 -15 -141 l3 -137 78 -3 c50 -2 84 1 93
9 10 8 14 38 14 114 0 56 -3 117 -6 134 l-6 31 -72 -1 c-39 -1 -79 -3 -89 -6z"/>
  <path d="M1921 15156 c-16 -19 -17 -92 -2 -110 14 -17 238 -72 250 -60 2 1 5
22 8 46 6 57 -17 78 -121 112 -90 30 -119 32 -135 12z"/>
  <path d="M2063 14622 c-37 -24 -31 -100 10 -120 60 -29 213 -64 244 -56 26 7
36 48 21 91 -10 28 -18 33 -92 53 -45 12 -94 26 -110 31 -35 11 -57 11 -73 1z"/>
  <path d="M3315 14601 c-2 -5 -8 -47 -11 -94 -6 -77 -5 -86 12 -95 31 -16 170
-32 327 -37 134 -4 148 -3 155 13 8 20 8 179 0 187 -11 11 -55 15 -198 20 -80
3 -175 7 -212 10 -37 2 -70 0 -73 -4z"/>
  <path d="M2825 14401 c-8 -59 1 -125 19 -140 19 -16 258 -54 401 -63 l40 -3 3
94 c1 52 -1 98 -7 104 -5 5 -42 13 -82 18 -41 4 -108 13 -149 20 -41 6 -107
13 -146 16 l-72 5 -7 -51z"/>
  <path d="M3630 14051 c-12 -8 -12 -22 -3 -86 6 -42 15 -81 21 -87 22 -22 328
-38 412 -21 l33 6 -6 84 c-3 47 -10 90 -16 96 -15 15 -419 22 -441 8z"/>
  <path d="M4655 13925 c-5 -2 -40 -6 -77 -10 l-68 -7 0 -61 c0 -45 6 -71 21
-96 l20 -34 180 5 c111 3 185 10 191 16 8 8 8 31 -2 84 -21 114 -13 108 -143
107 -62 0 -116 -2 -122 -4z"/>
  <path d="M6934 13840 c-33 -16 -105 -43 -160 -61 -128 -41 -192 -74 -206 -104
-8 -19 -8 -39 1 -81 15 -65 42 -99 69 -86 9 5 46 14 82 20 269 46 321 61 368
104 31 30 28 76 -10 164 -39 86 -47 89 -144 44z"/>
  <path d="M6000 13570 c-179 -24 -497 -77 -510 -85 -13 -8 -13 -81 1 -145 l11
-52 87 7 c227 17 404 36 481 50 47 8 102 18 123 21 20 4 40 11 43 16 4 5 3 48
-1 94 -6 80 -8 85 -35 99 -34 18 -27 18 -200 -5z"/>
  </g>
</svg>